<svg width="1469" height="551" viewBox="0 0 1469 551" fill="none" xmlns="http://www.w3.org/2000/svg">
<path d="M4 176.437C13.6744 171.569 44.9258 167.64 86.8777 179.296C115.838 187.341 130.032 203.793 140.717 210.097C162.505 222.95 186.612 248.625 212.44 275.439C238.268 302.253 267.702 332.63 291.14 361.452C306.333 380.135 324.429 391.36 342.517 402.164C376.028 422.181 387.987 429.535 402.646 439.798C409.98 444.933 424.105 452.963 449.405 469.031C485.213 491.772 534.365 509.64 577.328 521.369C609.992 530.286 596.193 540.017 695.869 542.949C795.545 545.881 956.026 421.05 1003.69 381.684C1003.69 381.684 1413.02 68.0664 1423.36 49.902C1438.51 36.7222 1452.18 21.0941 1461 4" stroke="black" stroke-width="16"/>
</svg>
